:SAMPLES-PER-SECOND 30
:FULLY-SPECIFIED
:DEGREES
232
root  35.15718115 36.46892638 -14.95090395 8.767172813 -10.04708576 5.369057178
lowerback  -6.972859859 -1.644979954 -0.9005302191
upperback  -3.606509924 -1.668200016 -4.43832016
thorax  0.07738160342 -0.6783459783 -4.196129799
lowerneck  -0.6073520184 -17.40950012 -11.56799984
upperneck  6.322820187 -23.98540115 12.5965004
head  4.899580002 -11.6935997 3.956130028
lclavicle  0 -4.497500157e-015 -2.743230041e-014
lhumerus  -48.57960129 28.09320068 61.74309921
lradius  5.228657756e-007 -6.507048965e-006 30.30699921
lwrist  4.824992743e-007 -3.790274832e-007 -28.70140076
lhand  -0 -36.95500183 -10.71580029
lfingers  90 7.125020027 -90
lthumb  94.85060204 -25.54893905 101.1316801
rclavicle  0 -4.497500157e-015 -2.743230041e-014
rhumerus  -12.20810032 -44.80649567 5.099228382
rradius  -5.16745672e-007 2.214343908e-008 51.02209854
rwrist  -0.0001064338358 0.02974390797 -170.6439972
rhand  -1.77019945e-031 4.147980213 -7.438509941
rfingers  -90 -7.125020027 -90
rthumb  -85.08195512 -8.596730262 -60.07312642
rfemur  -14.70111752 16.40893364 9.88223362
rtibia  -1.878682852 -3.074080229 22.57816505
rfoot  0.1740920842 -24.57277679 -32.13480377
rtoes  3.811304752 19.64810528 -101.2066107
lfemur  -9.466693878 -18.16000366 -23.0114727
ltibia  2.425751209 -4.085582256 16.04343033
lfoot  1.64006567 -18.85707664 41.13663101
ltoes  -8.668037606 -18.09373602 -116.1450233
233
root  35.15468507 36.47064149 -14.95194022 8.74124527 -10.02170849 5.347080708
lowerback  -6.984009743 -1.649270058 -0.9136142731
upperback  -3.621819973 -1.670719981 -4.445409775
thorax  0.06773740053 -0.6785690188 -4.196450233
lowerneck  -0.8795189857 -17.15229988 -11.34519958
upperneck  6.563610077 -23.61610222 12.38599968
head  4.921440125 -11.49950027 3.887010098
lclavicle  0 -4.497500157e-015 -2.743230041e-014
lhumerus  -48.61209869 28.13949966 61.71220016
lradius  5.228657756e-007 -6.507048965e-006 30.33499908
lwrist  4.824992743e-007 -3.790274832e-007 -28.64699936
lhand  -4.417268239e-031 -36.9280014 -10.7748003
lfingers  90 7.125020027 -90
lthumb  94.85049181 -25.60776373 101.1081755
rclavicle  0 -4.497500157e-015 -2.743230041e-014
rhumerus  -12.99860001 -44.26939774 5.293068886
rradius  -5.16745672e-007 2.214343908e-008 51.97859955
rwrist  -0.0001064338358 0.02974390797 -171.5370026
rhand  -1.77000414e-031 4.059869766 -7.365640163
rfingers  -90 -7.125020027 -90
rthumb  -85.06543446 -8.654237769 -60.15348924
rfemur  -14.65020561 16.44461441 9.926130295
rtibia  -1.871474266 -3.041904449 22.5569725
rfoot  0.1847417057 -24.53542328 -32.16746521
rtoes  3.803324631 19.64959266 -101.1828783
lfemur  -9.429060936 -18.18117714 -22.98548508
ltibia  2.418941259 -4.089069843 16.03469658
lfoot  1.630369782 -18.82640648 41.14471054
ltoes  -8.658249288 -18.09829998 -116.1135101
234
root  35.15285282 36.47075863 -14.95271818 8.713204384 -10.00875664 5.32631731
lowerback  -7.006979942 -1.633419991 -0.9169185162
upperback  -3.634500027 -1.646579981 -4.455309868
thorax  0.06873460114 -0.6655679941 -4.203810215
lowerneck  -1.203250051 -16.94120026 -11.20580006
upperneck  6.895720005 -23.31909943 12.23670006
head  5.006859779 -11.33450031 3.825809956
lclavicle  0 -4.497500157e-015 -2.743230041e-014
lhumerus  -48.60570145 28.05550003 61.79470062
lradius  5.228657756e-007 -6.507048965e-006 30.39710045
lwrist  4.824992743e-007 -3.790274832e-007 -28.49570084
lhand  -4.419094784e-031 -36.95949936 -10.73480034
lfingers  90 7.125020027 -90
lthumb  94.85676144 -25.56741503 101.1382029
rclavicle  0 -4.497500157e-015 -2.743230041e-014
rhumerus  -13.87540054 -43.83940125 5.53588295
rradius  -5.16745672e-007 2.214343908e-008 52.91630173
rwrist  -0.0001064338358 0.02974390797 -172.1060028
rhand  -1.769738713e-031 3.936939955 -7.353980064
rfingers  -90 -7.125020027 -90
rthumb  -85.08771204 -8.656589792 -60.27247766
rfemur  -14.58861923 16.41698647 9.956869125
rtibia  -1.855517626 -3.038599968 22.50921249
rfoot  0.2164003551 -24.54512978 -32.13552475
rtoes  3.807813538 19.64875639 -101.1962278
lfemur  -9.389103889 -18.20798874 -22.96865273
ltibia  2.41511178 -4.071920872 16.03585625
lfoot  1.647626042 -18.86394501 41.19989014
ltoes  -8.653079154 -18.10070802 -116.0968682
235
root  35.1522731 36.46934089 -14.95287738 8.695116997 -10.00860214 5.313579082
lowerback  -6.986890316 -1.56783998 -0.8493899703
upperback  -3.64357996 -1.563599944 -4.478829861
thorax  0.0509401001 -0.6250849962 -4.260399818
lowerneck  -1.529999971 -16.7656002 -11.20919991
upperneck  7.208209991 -23.07920074 12.22049999
head  5.127029896 -11.19509983 3.81092
lclavicle  0 -4.497500157e-015 -2.743230041e-014
lhumerus  -48.52999878 27.78840065 62.04750061
lradius  5.228657756e-007 -6.507048965e-006 30.5087986
lwrist  4.824992743e-007 -3.790274832e-007 -28.2310009
lhand  -4.417807257e-031 -36.93730164 -10.78250027
lfingers  90 7.125020027 -90
lthumb  94.85652206 -25.61495088 101.1188686
rclavicle  0 -4.497500157e-015 -2.743230041e-014
rhumerus  -14.85140133 -43.81549835 5.836102962
rradius  -5.16745672e-007 2.214343908e-008 53.81610107
rwrist  -0.0001064338358 0.02974390797 -172.9539948
rhand  -1.769628806e-031 3.884890079 -7.297520161
rfingers  -90 -7.125020027 -90
rthumb  -85.07136118 -8.702283751 -60.31895978
rfemur  -14.54830456 16.44060326 9.966518402
rtibia  -1.84220016 -3.032960653 22.46780205
rfoot  0.2351922244 -24.53359032 -32.15256882
rtoes  3.850446632 19.64076271 -101.3230413
lfemur  -9.385157585 -18.23813057 -22.95833397
ltibia  2.395653248 -4.085402966 16.06897163
lfoot  1.635590672 -18.85506058 41.18603134
ltoes  -8.652077574 -18.10117431 -116.0936445
